<svg id="Capa_1" enable-background="new 0 0 511.798 511.798" height="512" viewBox="0 0 511.798 511.798" width="512" xmlns="http://www.w3.org/2000/svg"><g><g><path clip-rule="evenodd" d="m256.101 13.348c-99.181 1.615-198.362 76.284-198.362 223.632h396.723c.001-147.348-99.18-222.017-198.361-223.632z" fill="#6d80aa" fill-rule="evenodd"/></g><g><path clip-rule="evenodd" d="m454.463 236.98-27.398 39.598 23.649 51.625c25.206.317 53.787-25.639 53.787-51.135v-19.929c0-11.104-9.056-20.16-20.159-20.16h-29.879z" fill="#ffbc85" fill-rule="evenodd"/></g><g><path clip-rule="evenodd" d="m7.702 257.139v19.929c0 25.495 28.552 51.452 53.787 51.135l29.994-45.626-33.744-45.597h-29.878c-11.103 0-20.159 9.056-20.159 20.159z" fill="#ffbc85" fill-rule="evenodd"/></g><g><path clip-rule="evenodd" d="m248.285 13.608c84.271 16.497 159.716 87.215 162.831 211.922 10.729 5.739 24.514 10.123 43.347 11.45 0-147.348-99.181-222.016-198.362-223.632-2.596.029-5.22.115-7.816.26z" fill="#49679b" fill-rule="evenodd"/></g><g><path clip-rule="evenodd" d="m181.463 184.345c-55.402-14.276-43.433 47.039-123.724 52.634v60.681c0 9.892 1.298 20.131 3.749 30.542 15.142 64.316 74.523 134.168 144.922 160.269 17.967 6.662 33.829 9.979 49.691 9.979s31.724-3.317 49.691-9.979c70.398-26.101 129.78-95.953 144.921-160.268 2.451-10.411 3.749-20.65 3.749-30.542v-60.681c-80.291-5.595-68.322-66.911-123.724-52.634-42.856 11.017-58.718 16.583-74.638 16.555-15.919.028-31.781-5.539-74.637-16.556z" fill="#ffe5c1" fill-rule="evenodd"/></g><g><path clip-rule="evenodd" d="m411.203 233.519v60.681c0 9.892-1.298 20.16-3.749 30.542-15.141 64.344-74.523 134.167-144.921 160.268-13.382 4.961-25.581 8.075-37.463 9.344 10.7 2.74 20.88 4.095 31.032 4.095 15.862 0 31.724-3.317 49.691-9.979 70.398-26.101 129.78-95.953 144.921-160.268 2.451-10.411 3.749-20.65 3.749-30.542v-60.68c-18.833-1.327-32.618-5.711-43.347-11.45.058 2.624.087 5.307.087 7.989z" fill="#fed1a3" fill-rule="evenodd"/></g><g><path clip-rule="evenodd" d="m181.088 424.329v-38.56-115.969c-13.238-5.422-28.234-5.422-41.472 0v178.698c12.863 10.96 26.821 20.621 41.472 28.495z" fill="#22a6fe" fill-rule="evenodd"/></g><g><path clip-rule="evenodd" d="m372.586 398.142v-128.342c-13.238-5.422-28.234-5.422-41.472 0v115.969 38.56 19.208 33.455c14.651-7.874 28.609-17.535 41.472-28.495z" fill="#22a6fe" fill-rule="evenodd"/></g><g><path clip-rule="evenodd" d="m331.114 385.769c-2.797-5.653-6.287-11.392-10.498-16.93h-129.03c-4.211 5.537-7.7 11.277-10.498 16.93v38.56c10.757-3.49 33.945-23.015 75.013-23.015s64.256 19.525 75.013 23.015z" fill="#fd4755" fill-rule="evenodd"/></g><g><path clip-rule="evenodd" d="m320.616 368.84c-13.93-18.314-35.531-34.032-64.515-34.032s-50.585 15.718-64.515 34.032z" fill="#f8f2f0" fill-rule="evenodd"/></g><g><path clip-rule="evenodd" d="m372.586 398.142v-128.342c-6.633-2.711-13.67-4.067-20.736-4.067v128.342 29.389 40.896c7.152-4.903 14.103-10.21 20.736-15.862z" fill="#0182fc" fill-rule="evenodd"/></g><g><path clip-rule="evenodd" d="m181.088 385.769v-115.969c-5.653-2.307-11.594-3.634-17.621-3.98v117.267 83.379c5.739 3.778 11.623 7.297 17.621 10.527v-52.663z" fill="#0182fc" fill-rule="evenodd"/></g><g><path clip-rule="evenodd" d="m320.616 368.84h-129.03c-4.211 5.537-7.7 11.277-10.498 16.93v.952h150.026v-.952c-2.798-5.654-6.287-11.393-10.498-16.93z" fill="#e41e2b" fill-rule="evenodd"/></g><g><path clip-rule="evenodd" d="m256.101 334.808c-28.984 0-50.585 15.718-64.515 34.032h10.354c13.218-21.339 96.256-21.172 110.14 0h8.537c-13.931-18.314-35.532-34.032-64.516-34.032z" fill="#eee1dc" fill-rule="evenodd"/></g><path d="m484.139 229.479h-22.471c-1.529-67.001-23.602-123.676-64.084-164.262-37.312-37.405-87.586-58.489-141.563-59.368-.08-.002-.161-.002-.242 0-46.123.738-90.868 16.84-125.993 45.34-3.216 2.61-3.708 7.333-1.099 10.55 2.609 3.216 7.333 3.707 10.55 1.099 32.497-26.367 73.925-41.276 116.66-41.988 90.199 1.524 187.097 67.246 190.756 207.845-32.22-4.186-46.396-18.654-59.016-31.533-14.191-14.482-27.595-28.163-58.968-20.079-10.229 2.629-18.839 4.926-26.435 6.952-23.351 6.229-35.106 9.366-46.245 9.366-.07.001-.14.001-.21 0-11.117 0-22.881-3.14-46.243-9.376-7.582-2.023-16.175-4.317-26.377-6.941-31.392-8.086-44.803 5.598-59.001 20.083-12.62 12.876-26.8 27.342-59.012 31.527 1.532-57.101 18.961-106.446 50.641-143.128 2.708-3.135 2.361-7.871-.774-10.578-3.137-2.709-7.871-2.361-10.579.773-34.195 39.594-52.891 92.619-54.302 153.719h-22.473c-15.251-.001-27.659 12.407-27.659 27.659v19.929c0 13.468 6.706 27.813 18.397 39.359 10.732 10.597 24.201 17.418 37.031 18.949 7.026 25.808 20.711 52.72 39.829 77.566 11.383 14.794 24.126 28.246 37.81 40.057.822 1.307 2.03 2.344 3.471 2.943 20.768 17.306 43.581 30.85 67.062 39.56 19.221 7.127 35.839 10.446 52.299 10.446s33.078-3.319 52.3-10.446c23.48-8.71 46.293-22.254 67.061-39.56 1.441-.599 2.649-1.637 3.471-2.943 13.684-11.812 26.427-25.263 37.81-40.057 19.118-24.845 32.802-51.756 39.828-77.564 12.829-1.524 26.299-8.341 37.027-18.935 11.694-11.548 18.401-25.899 18.401-39.376v-19.929c.001-15.251-12.407-27.659-27.658-27.659zm-455.202 76.276c-8.857-8.747-13.937-19.203-13.937-28.687v-19.929c0-6.98 5.679-12.66 12.659-12.66h22.378v53.182c0 7.046.644 14.33 1.88 21.764-7.961-2.164-16.208-6.984-22.98-13.67zm294.475 166.709c-6.726 3.417-13.548 6.423-20.429 8.975-17.5 6.488-32.461 9.511-47.084 9.511s-29.584-3.022-47.083-9.511c-6.881-2.552-13.703-5.558-20.43-8.975v-43.179c1.876-.919 3.912-2.011 6.188-3.232 12.797-6.864 32.137-17.238 61.324-17.238s48.527 10.374 61.324 17.238c2.277 1.221 4.313 2.313 6.189 3.232v43.179zm0-60.112c-13.357-7.156-35.289-18.537-67.513-18.537s-54.157 11.381-67.513 18.537v-24.774c1.503-2.874 3.784-6.834 6.897-11.237h121.246c3.108 4.403 5.381 8.362 6.883 11.236zm-115.005-51.012c11.151-10.22 26.768-19.032 47.492-19.032 20.751 0 36.372 8.812 47.518 19.032zm130.005 102.715v-39.613c0-.02 0-.04 0-.061v-149.244c8.627-2.512 17.845-2.512 26.472 0v169.94c-8.508 7.031-17.366 13.385-26.472 18.978zm108.349-166.394c0 32.673-15.348 71.357-42.107 106.135-7.662 9.958-15.967 19.266-24.77 27.825v-148.964c1.673 1.26 3.285 2.635 4.812 4.149 1.462 1.45 3.372 2.175 5.281 2.175 1.93 0 3.858-.74 5.325-2.219 2.917-2.94 2.897-7.689-.044-10.606-24.047-23.851-63.173-23.849-87.22 0-2.941 2.917-2.961 7.666-.044 10.606 2.918 2.941 7.667 2.96 10.606.044 1.526-1.514 3.139-2.889 4.812-4.149v78.028c-13.172-15.905-35.032-33.378-67.513-33.378-32.456 0-54.331 17.488-67.513 33.397v-78.047c1.673 1.26 3.285 2.635 4.811 4.149 1.463 1.45 3.372 2.175 5.282 2.175 1.929 0 3.859-.74 5.325-2.219 2.917-2.94 2.898-7.689-.043-10.606-8.785-8.713-20.131-14.613-32.292-16.849-12.911-2.374-26.434-.585-38.259 5.091-6.162 2.958-11.817 6.944-16.67 11.758-2.941 2.917-2.96 7.666-.043 10.606 2.917 2.941 7.665 2.96 10.606.044 1.526-1.513 3.138-2.889 4.811-4.149v64.782c0 4.143 3.358 7.5 7.5 7.5s7.5-3.357 7.5-7.5v-72.304c8.627-2.512 17.845-2.512 26.472 0v149.246.058 39.614c-9.106-5.593-17.964-11.947-26.472-18.979v-70.583c0-4.143-3.358-7.5-7.5-7.5s-7.5 3.357-7.5 7.5v57.127c-8.802-8.559-17.107-17.867-24.769-27.824-26.76-34.777-42.108-73.462-42.108-106.135v-53.85c38.751-4.453 55.908-21.937 69.834-36.145 13.435-13.708 21.543-21.984 44.549-16.057 10.139 2.607 18.697 4.893 26.248 6.908 24.625 6.572 37.026 9.883 50.079 9.883h.275c13.07 0 25.469-3.308 50.078-9.873 7.565-2.018 16.14-4.306 26.307-6.919 22.986-5.925 31.088 2.348 44.516 16.051 13.925 14.212 31.08 31.698 69.837 36.152v53.852zm50.037-20.593c0 9.492-5.081 19.954-13.94 28.703-6.771 6.686-15.017 11.503-22.978 13.662 1.238-7.438 1.882-14.724 1.882-21.772v-53.182h22.378c6.98 0 12.659 5.68 12.659 12.66v19.929z"/></g></svg>